<svg width="105" height="145" viewBox="0 0 105 145" fill="none" xmlns="http://www.w3.org/2000/svg">
<path d="M10.1901 0.407807C9.43847 4.40345 8.68625 8.39911 7.80914 13.1439C9.43847 12.5196 10.5665 12.145 11.6945 11.5207C35.632 -0.715957 61.1991 3.1548 80.625 21.8843C93.0325 33.9962 99.4243 48.9798 102.933 65.7116C106.819 84.4409 103.56 102.297 96.0404 119.528C92.1552 128.393 85.7634 135.261 78.2437 141.129C76.2385 142.627 74.2332 144.001 71.476 145C72.228 143.751 72.8546 142.253 73.9826 141.504C100.928 122.15 107.32 76.325 89.6486 43.2361C82.7555 30.2503 72.604 20.5109 59.0685 14.6423C43.1519 7.77478 22.2221 10.6466 9.18753 21.6346C14.8277 23.8822 22.0967 21.8843 26.6082 28.2525C18.5871 28.0027 11.3181 27.8778 4.17467 27.6281C1.79312 27.5032 -0.0865569 26.2546 0.540198 24.0071C2.54534 16.2655 4.80143 8.64881 7.18239 1.157C7.30785 0.657542 8.4359 0.407803 9.06265 0.0332116C9.31299 -0.0916519 9.81428 0.158079 10.1901 0.407807Z" fill="#D62828"/>
</svg>
