<svg width="38" height="38" viewBox="0 0 38 38" fill="none" xmlns="http://www.w3.org/2000/svg">
<path fill-rule="evenodd" clip-rule="evenodd" d="M0.538561 0.538561C1.25662 -0.17952 2.42082 -0.17952 3.13888 0.538561L19 16.3996L34.8612 0.538561C35.5792 -0.17952 36.7434 -0.17952 37.4613 0.538561C38.1796 1.25662 38.1796 2.42082 37.4613 3.13888L21.6004 19L37.4613 34.8612C38.1796 35.5792 38.1796 36.7434 37.4613 37.4613C36.7434 38.1796 35.5792 38.1796 34.8612 37.4613L19 21.6004L3.13888 37.4613C2.42082 38.1796 1.25662 38.1796 0.538561 37.4613C-0.17952 36.7434 -0.17952 35.5792 0.538561 34.8612L16.3996 19L0.538561 3.13888C-0.17952 2.42082 -0.17952 1.25662 0.538561 0.538561Z" fill="#030D45"/>
</svg>
