<svg width="221" height="213" viewBox="0 0 221 213" fill="none" xmlns="http://www.w3.org/2000/svg">
<mask id="mask0_8_1152" style="mask-type:alpha" maskUnits="userSpaceOnUse" x="0" y="0" width="221" height="213">
<path fill-rule="evenodd" clip-rule="evenodd" d="M181.45 181.481C137.484 216.199 48.8326 228.391 14.3789 184.291C-20.0747 140.19 12.7084 56.4971 56.6514 21.7792C100.617 -12.9387 164.189 -5.33218 198.642 38.7673C233.096 82.8691 225.393 146.763 181.45 181.481Z" fill="white"/>
</mask>
<g mask="url(#mask0_8_1152)">
<path fill-rule="evenodd" clip-rule="evenodd" d="M10.9687 6.97206C10.9687 9.67317 7.67415 11.8635 4.98282 11.8635C2.29149 11.8635 0.133789 9.67317 0.133789 6.97206C0.133789 4.27095 2.29149 0.361572 4.98282 0.361572C7.67415 0.361572 10.9687 4.27095 10.9687 6.97206Z" fill="#006B3F" fill-opacity="0.44"/>
<path fill-rule="evenodd" clip-rule="evenodd" d="M33.3813 6.97206C33.3813 9.67317 30.0868 11.8635 27.4186 11.8635C24.7273 11.8635 22.5464 9.67317 22.5464 6.97206C22.5464 4.27095 24.7273 0.361572 27.4186 0.361572C30.0868 0.361572 33.3813 4.27095 33.3813 6.97206Z" fill="#006B3F" fill-opacity="0.44"/>
<path fill-rule="evenodd" clip-rule="evenodd" d="M55.7934 6.97206C55.7934 9.67317 52.5221 11.8635 49.8307 11.8635C47.1394 11.8635 44.9585 9.67317 44.9585 6.97206C44.9585 4.27095 47.1394 0.361572 49.8307 0.361572C52.5221 0.361572 55.7934 4.27095 55.7934 6.97206Z" fill="#006B3F" fill-opacity="0.44"/>
<path fill-rule="evenodd" clip-rule="evenodd" d="M123.076 6.97206C123.076 9.67317 119.782 11.8635 117.09 11.8635C114.399 11.8635 112.218 9.67317 112.218 6.97206C112.218 4.27095 114.399 0.361572 117.09 0.361572C119.782 0.361572 123.076 4.27095 123.076 6.97206Z" fill="#006B3F" fill-opacity="0.44"/>
<path fill-rule="evenodd" clip-rule="evenodd" d="M190.336 6.97206C190.336 9.67317 187.042 11.8635 184.35 11.8635C181.682 11.8635 179.501 9.67317 179.501 6.97206C179.501 4.27095 181.682 0.361572 184.35 0.361572C187.042 0.361572 190.336 4.27095 190.336 6.97206Z" fill="#006B3F" fill-opacity="0.44"/>
<path fill-rule="evenodd" clip-rule="evenodd" d="M212.748 6.97206C212.748 9.67317 209.477 11.8635 206.786 11.8635C204.094 11.8635 201.914 9.67317 201.914 6.97206C201.914 4.27095 204.094 0.361572 206.786 0.361572C209.477 0.361572 212.748 4.27095 212.748 6.97206Z" fill="#006B3F" fill-opacity="0.44"/>
<path fill-rule="evenodd" clip-rule="evenodd" d="M10.9687 27.6757C10.9687 30.3768 7.67415 32.5671 4.98282 32.5671C2.29149 32.5671 0.133789 30.3768 0.133789 27.6757C0.133789 24.9746 2.29149 21.0652 4.98282 21.0652C7.67415 21.0652 10.9687 24.9746 10.9687 27.6757Z" fill="#006B3F" fill-opacity="0.44"/>
<path fill-rule="evenodd" clip-rule="evenodd" d="M33.3813 27.6757C33.3813 30.3768 30.0868 32.5671 27.4186 32.5671C24.7273 32.5671 22.5464 30.3768 22.5464 27.6757C22.5464 24.9746 24.7273 21.0652 27.4186 21.0652C30.0868 21.0652 33.3813 24.9746 33.3813 27.6757Z" fill="#006B3F" fill-opacity="0.44"/>
<path fill-rule="evenodd" clip-rule="evenodd" d="M78.229 27.6757C78.229 30.3768 74.9344 32.5671 72.2431 32.5671C69.5749 32.5671 67.394 30.3768 67.394 27.6757C67.394 24.9746 69.5749 21.0652 72.2431 21.0652C74.9344 21.0652 78.229 24.9746 78.229 27.6757Z" fill="#006B3F" fill-opacity="0.44"/>
<path fill-rule="evenodd" clip-rule="evenodd" d="M100.642 27.6757C100.642 30.3768 97.3702 32.5671 94.6789 32.5671C91.9875 32.5671 89.8066 30.3768 89.8066 27.6757C89.8066 24.9746 91.9875 21.0652 94.6789 21.0652C97.3702 21.0652 100.642 24.9746 100.642 27.6757Z" fill="#006B3F" fill-opacity="0.44"/>
<path fill-rule="evenodd" clip-rule="evenodd" d="M123.076 27.6757C123.076 30.3768 119.782 32.5671 117.09 32.5671C114.399 32.5671 112.218 30.3768 112.218 27.6757C112.218 24.9746 114.399 21.0652 117.09 21.0652C119.782 21.0652 123.076 24.9746 123.076 27.6757Z" fill="#006B3F" fill-opacity="0.44"/>
<path fill-rule="evenodd" clip-rule="evenodd" d="M212.748 27.6757C212.748 30.3768 209.477 32.5671 206.786 32.5671C204.094 32.5671 201.914 30.3768 201.914 27.6757C201.914 24.9746 204.094 21.0652 206.786 21.0652C209.477 21.0652 212.748 24.9746 212.748 27.6757Z" fill="#006B3F" fill-opacity="0.44"/>
<path fill-rule="evenodd" clip-rule="evenodd" d="M10.9687 48.3798C10.9687 51.0809 7.67415 53.2712 4.98282 53.2712C2.29149 53.2712 0.133789 51.0809 0.133789 48.3798C0.133789 45.6787 2.29149 41.7693 4.98282 41.7693C7.67415 41.7693 10.9687 45.6787 10.9687 48.3798Z" fill="#006B3F" fill-opacity="0.44"/>
<path fill-rule="evenodd" clip-rule="evenodd" d="M55.7934 48.3798C55.7934 51.0809 52.5221 53.2712 49.8307 53.2712C47.1394 53.2712 44.9585 51.0809 44.9585 48.3798C44.9585 45.6787 47.1394 41.7693 49.8307 41.7693C52.5221 41.7693 55.7934 45.6787 55.7934 48.3798Z" fill="#006B3F" fill-opacity="0.44"/>
<path fill-rule="evenodd" clip-rule="evenodd" d="M78.229 48.3798C78.229 51.0809 74.9344 53.2712 72.2431 53.2712C69.5749 53.2712 67.394 51.0809 67.394 48.3798C67.394 45.6787 69.5749 41.7693 72.2431 41.7693C74.9344 41.7693 78.229 45.6787 78.229 48.3798Z" fill="#006B3F" fill-opacity="0.44"/>
<path fill-rule="evenodd" clip-rule="evenodd" d="M100.642 48.3798C100.642 51.0809 97.3702 53.2712 94.6789 53.2712C91.9875 53.2712 89.8066 51.0809 89.8066 48.3798C89.8066 45.6787 91.9875 41.7693 94.6789 41.7693C97.3702 41.7693 100.642 45.6787 100.642 48.3798Z" fill="#006B3F" fill-opacity="0.44"/>
<path fill-rule="evenodd" clip-rule="evenodd" d="M123.076 48.3798C123.076 51.0809 119.782 53.2712 117.09 53.2712C114.399 53.2712 112.218 51.0809 112.218 48.3798C112.218 45.6787 114.399 41.7693 117.09 41.7693C119.782 41.7693 123.076 45.6787 123.076 48.3798Z" fill="#006B3F" fill-opacity="0.44"/>
<path fill-rule="evenodd" clip-rule="evenodd" d="M145.489 48.3798C145.489 51.0809 142.195 53.2712 139.527 53.2712C136.835 53.2712 134.654 51.0809 134.654 48.3798C134.654 45.6787 136.835 41.7693 139.527 41.7693C142.195 41.7693 145.489 45.6787 145.489 48.3798Z" fill="#006B3F" fill-opacity="0.44"/>
<path fill-rule="evenodd" clip-rule="evenodd" d="M167.901 48.3798C167.901 51.0809 164.629 53.2712 161.938 53.2712C159.247 53.2712 157.066 51.0809 157.066 48.3798C157.066 45.6787 159.247 41.7693 161.938 41.7693C164.629 41.7693 167.901 45.6787 167.901 48.3798Z" fill="#006B3F" fill-opacity="0.44"/>
<path fill-rule="evenodd" clip-rule="evenodd" d="M10.9687 69.0836C10.9687 71.7847 7.67415 73.975 4.98282 73.975C2.29149 73.975 0.133789 71.7847 0.133789 69.0836C0.133789 66.3825 2.29149 62.4731 4.98282 62.4731C7.67415 62.4731 10.9687 66.3825 10.9687 69.0836Z" fill="#006B3F" fill-opacity="0.44"/>
<path fill-rule="evenodd" clip-rule="evenodd" d="M33.3813 69.0836C33.3813 71.7847 30.0868 73.975 27.4186 73.975C24.7273 73.975 22.5464 71.7847 22.5464 69.0836C22.5464 66.3825 24.7273 62.4731 27.4186 62.4731C30.0868 62.4731 33.3813 66.3825 33.3813 69.0836Z" fill="#006B3F" fill-opacity="0.44"/>
<path fill-rule="evenodd" clip-rule="evenodd" d="M55.7934 69.0836C55.7934 71.7847 52.5221 73.975 49.8307 73.975C47.1394 73.975 44.9585 71.7847 44.9585 69.0836C44.9585 66.3825 47.1394 62.4731 49.8307 62.4731C52.5221 62.4731 55.7934 66.3825 55.7934 69.0836Z" fill="#006B3F" fill-opacity="0.44"/>
<path fill-rule="evenodd" clip-rule="evenodd" d="M78.229 69.0836C78.229 71.7847 74.9344 73.975 72.2431 73.975C69.5749 73.975 67.394 71.7847 67.394 69.0836C67.394 66.3825 69.5749 62.4731 72.2431 62.4731C74.9344 62.4731 78.229 66.3825 78.229 69.0836Z" fill="#006B3F" fill-opacity="0.44"/>
<path fill-rule="evenodd" clip-rule="evenodd" d="M100.642 69.0836C100.642 71.7847 97.3702 73.975 94.6789 73.975C91.9875 73.975 89.8066 71.7847 89.8066 69.0836C89.8066 66.3825 91.9875 62.4731 94.6789 62.4731C97.3702 62.4731 100.642 66.3825 100.642 69.0836Z" fill="#006B3F" fill-opacity="0.44"/>
<path fill-rule="evenodd" clip-rule="evenodd" d="M123.076 69.0836C123.076 71.7847 119.782 73.975 117.09 73.975C114.399 73.975 112.218 71.7847 112.218 69.0836C112.218 66.3825 114.399 62.4731 117.09 62.4731C119.782 62.4731 123.076 66.3825 123.076 69.0836Z" fill="#006B3F" fill-opacity="0.44"/>
<path fill-rule="evenodd" clip-rule="evenodd" d="M145.489 69.0836C145.489 71.7847 142.195 73.975 139.527 73.975C136.835 73.975 134.654 71.7847 134.654 69.0836C134.654 66.3825 136.835 62.4731 139.527 62.4731C142.195 62.4731 145.489 66.3825 145.489 69.0836Z" fill="#006B3F" fill-opacity="0.44"/>
<path fill-rule="evenodd" clip-rule="evenodd" d="M167.901 69.0836C167.901 71.7847 164.629 73.975 161.938 73.975C159.247 73.975 157.066 71.7847 157.066 69.0836C157.066 66.3825 159.247 62.4731 161.938 62.4731C164.629 62.4731 167.901 66.3825 167.901 69.0836Z" fill="#006B3F" fill-opacity="0.44"/>
<path fill-rule="evenodd" clip-rule="evenodd" d="M190.336 69.0836C190.336 71.7847 187.042 73.975 184.35 73.975C181.682 73.975 179.501 71.7847 179.501 69.0836C179.501 66.3825 181.682 62.4731 184.35 62.4731C187.042 62.4731 190.336 66.3825 190.336 69.0836Z" fill="#006B3F" fill-opacity="0.44"/>
<path fill-rule="evenodd" clip-rule="evenodd" d="M212.748 69.0836C212.748 71.7847 209.477 73.975 206.786 73.975C204.094 73.975 201.914 71.7847 201.914 69.0836C201.914 66.3825 204.094 62.4731 206.786 62.4731C209.477 62.4731 212.748 66.3825 212.748 69.0836Z" fill="#006B3F" fill-opacity="0.44"/>
<path fill-rule="evenodd" clip-rule="evenodd" d="M145.489 28.5248C145.489 31.2259 142.195 33.4162 139.527 33.4162C136.835 33.4162 134.654 31.2259 134.654 28.5248C134.654 25.8237 136.835 21.9143 139.527 21.9143C142.195 21.9143 145.489 25.8237 145.489 28.5248Z" fill="#006B3F" fill-opacity="0.44"/>
<path fill-rule="evenodd" clip-rule="evenodd" d="M167.901 28.5248C167.901 31.2259 164.629 33.4162 161.938 33.4162C159.247 33.4162 157.066 31.2259 157.066 28.5248C157.066 25.8237 159.247 21.9143 161.938 21.9143C164.629 21.9143 167.901 25.8237 167.901 28.5248Z" fill="#006B3F" fill-opacity="0.44"/>
<path fill-rule="evenodd" clip-rule="evenodd" d="M190.336 49.2289C190.336 51.93 187.042 54.1203 184.35 54.1203C181.682 54.1203 179.501 51.93 179.501 49.2289C179.501 46.5278 181.682 42.6184 184.35 42.6184C187.042 42.6184 190.336 46.5278 190.336 49.2289Z" fill="#006B3F" fill-opacity="0.44"/>
<path fill-rule="evenodd" clip-rule="evenodd" d="M33.3813 89.7876C33.3813 92.4887 30.0868 94.679 27.4186 94.679C24.7273 94.679 22.5464 92.4887 22.5464 89.7876C22.5464 87.0865 24.7273 83.1748 27.4186 83.1748C30.0868 83.1748 33.3813 87.0865 33.3813 89.7876Z" fill="#006B3F" fill-opacity="0.44"/>
<path fill-rule="evenodd" clip-rule="evenodd" d="M55.7934 89.7876C55.7934 92.4887 52.5221 94.679 49.8307 94.679C47.1394 94.679 44.9585 92.4887 44.9585 89.7876C44.9585 87.0865 47.1394 83.1748 49.8307 83.1748C52.5221 83.1748 55.7934 87.0865 55.7934 89.7876Z" fill="#006B3F" fill-opacity="0.44"/>
<path fill-rule="evenodd" clip-rule="evenodd" d="M78.229 89.7876C78.229 92.4887 74.9344 94.679 72.2431 94.679C69.5749 94.679 67.394 92.4887 67.394 89.7876C67.394 87.0865 69.5749 83.1748 72.2431 83.1748C74.9344 83.1748 78.229 87.0865 78.229 89.7876Z" fill="#006B3F" fill-opacity="0.44"/>
<path fill-rule="evenodd" clip-rule="evenodd" d="M100.642 89.7876C100.642 92.4887 97.3702 94.679 94.6789 94.679C91.9875 94.679 89.8066 92.4887 89.8066 89.7876C89.8066 87.0865 91.9875 83.1748 94.6789 83.1748C97.3702 83.1748 100.642 87.0865 100.642 89.7876Z" fill="#006B3F" fill-opacity="0.44"/>
<path fill-rule="evenodd" clip-rule="evenodd" d="M123.076 89.7876C123.076 92.4887 119.782 94.679 117.09 94.679C114.399 94.679 112.218 92.4887 112.218 89.7876C112.218 87.0865 114.399 83.1748 117.09 83.1748C119.782 83.1748 123.076 87.0865 123.076 89.7876Z" fill="#006B3F" fill-opacity="0.44"/>
<path fill-rule="evenodd" clip-rule="evenodd" d="M145.489 89.7876C145.489 92.4887 142.195 94.679 139.527 94.679C136.835 94.679 134.654 92.4887 134.654 89.7876C134.654 87.0865 136.835 83.1748 139.527 83.1748C142.195 83.1748 145.489 87.0865 145.489 89.7876Z" fill="#006B3F" fill-opacity="0.44"/>
<path fill-rule="evenodd" clip-rule="evenodd" d="M167.901 89.7876C167.901 92.4887 164.629 94.679 161.938 94.679C159.247 94.679 157.066 92.4887 157.066 89.7876C157.066 87.0865 159.247 83.1748 161.938 83.1748C164.629 83.1748 167.901 87.0865 167.901 89.7876Z" fill="#006B3F" fill-opacity="0.44"/>
<path fill-rule="evenodd" clip-rule="evenodd" d="M190.336 89.7876C190.336 92.4887 187.042 94.679 184.35 94.679C181.682 94.679 179.501 92.4887 179.501 89.7876C179.501 87.0865 181.682 83.1748 184.35 83.1748C187.042 83.1748 190.336 87.0865 190.336 89.7876Z" fill="#006B3F" fill-opacity="0.44"/>
<path fill-rule="evenodd" clip-rule="evenodd" d="M212.748 89.7876C212.748 92.4887 209.477 94.679 206.786 94.679C204.094 94.679 201.914 92.4887 201.914 89.7876C201.914 87.0865 204.094 83.1748 206.786 83.1748C209.477 83.1748 212.748 87.0865 212.748 89.7876Z" fill="#006B3F" fill-opacity="0.44"/>
<path fill-rule="evenodd" clip-rule="evenodd" d="M33.3813 110.491C33.3813 113.192 30.0868 115.383 27.4186 115.383C24.7273 115.383 22.5464 113.192 22.5464 110.491C22.5464 107.79 24.7273 103.878 27.4186 103.878C30.0868 103.878 33.3813 107.79 33.3813 110.491Z" fill="#006B3F" fill-opacity="0.44"/>
<path fill-rule="evenodd" clip-rule="evenodd" d="M55.7934 110.491C55.7934 113.192 52.5221 115.383 49.8307 115.383C47.1394 115.383 44.9585 113.192 44.9585 110.491C44.9585 107.79 47.1394 103.878 49.8307 103.878C52.5221 103.878 55.7934 107.79 55.7934 110.491Z" fill="#006B3F" fill-opacity="0.44"/>
<path fill-rule="evenodd" clip-rule="evenodd" d="M78.229 110.491C78.229 113.192 74.9344 115.383 72.2431 115.383C69.5749 115.383 67.394 113.192 67.394 110.491C67.394 107.79 69.5749 103.878 72.2431 103.878C74.9344 103.878 78.229 107.79 78.229 110.491Z" fill="#006B3F" fill-opacity="0.44"/>
<path fill-rule="evenodd" clip-rule="evenodd" d="M100.642 110.491C100.642 113.192 97.3702 115.383 94.6789 115.383C91.9875 115.383 89.8066 113.192 89.8066 110.491C89.8066 107.79 91.9875 103.878 94.6789 103.878C97.3702 103.878 100.642 107.79 100.642 110.491Z" fill="#006B3F" fill-opacity="0.44"/>
<path fill-rule="evenodd" clip-rule="evenodd" d="M123.076 110.491C123.076 113.192 119.782 115.383 117.09 115.383C114.399 115.383 112.218 113.192 112.218 110.491C112.218 107.79 114.399 103.878 117.09 103.878C119.782 103.878 123.076 107.79 123.076 110.491Z" fill="#006B3F" fill-opacity="0.44"/>
<path fill-rule="evenodd" clip-rule="evenodd" d="M145.489 110.491C145.489 113.192 142.195 115.383 139.527 115.383C136.835 115.383 134.654 113.192 134.654 110.491C134.654 107.79 136.835 103.878 139.527 103.878C142.195 103.878 145.489 107.79 145.489 110.491Z" fill="#006B3F" fill-opacity="0.44"/>
<path fill-rule="evenodd" clip-rule="evenodd" d="M167.901 110.491C167.901 113.192 164.629 115.383 161.938 115.383C159.247 115.383 157.066 113.192 157.066 110.491C157.066 107.79 159.247 103.878 161.938 103.878C164.629 103.878 167.901 107.79 167.901 110.491Z" fill="#006B3F" fill-opacity="0.44"/>
<path fill-rule="evenodd" clip-rule="evenodd" d="M190.336 110.491C190.336 113.192 187.042 115.383 184.35 115.383C181.682 115.383 179.501 113.192 179.501 110.491C179.501 107.79 181.682 103.878 184.35 103.878C187.042 103.878 190.336 107.79 190.336 110.491Z" fill="#006B3F" fill-opacity="0.44"/>
<path fill-rule="evenodd" clip-rule="evenodd" d="M212.748 110.491C212.748 113.192 209.477 115.383 206.786 115.383C204.094 115.383 201.914 113.192 201.914 110.491C201.914 107.79 204.094 103.878 206.786 103.878C209.477 103.878 212.748 107.79 212.748 110.491Z" fill="#006B3F" fill-opacity="0.44"/>
<path fill-rule="evenodd" clip-rule="evenodd" d="M10.9687 131.195C10.9687 133.896 7.67415 136.087 4.98282 136.087C2.29149 136.087 0.133789 133.896 0.133789 131.195C0.133789 128.494 2.29149 124.583 4.98282 124.583C7.67415 124.583 10.9687 128.494 10.9687 131.195Z" fill="#006B3F" fill-opacity="0.44"/>
<path fill-rule="evenodd" clip-rule="evenodd" d="M33.3813 131.195C33.3813 133.896 30.0868 136.087 27.4186 136.087C24.7273 136.087 22.5464 133.896 22.5464 131.195C22.5464 128.494 24.7273 124.583 27.4186 124.583C30.0868 124.583 33.3813 128.494 33.3813 131.195Z" fill="#006B3F" fill-opacity="0.44"/>
<path fill-rule="evenodd" clip-rule="evenodd" d="M55.7934 131.195C55.7934 133.896 52.5221 136.087 49.8307 136.087C47.1394 136.087 44.9585 133.896 44.9585 131.195C44.9585 128.494 47.1394 124.583 49.8307 124.583C52.5221 124.583 55.7934 128.494 55.7934 131.195Z" fill="#006B3F" fill-opacity="0.44"/>
<path fill-rule="evenodd" clip-rule="evenodd" d="M78.229 131.195C78.229 133.896 74.9344 136.087 72.2431 136.087C69.5749 136.087 67.394 133.896 67.394 131.195C67.394 128.494 69.5749 124.583 72.2431 124.583C74.9344 124.583 78.229 128.494 78.229 131.195Z" fill="#006B3F" fill-opacity="0.44"/>
<path fill-rule="evenodd" clip-rule="evenodd" d="M100.642 131.195C100.642 133.896 97.3702 136.087 94.6789 136.087C91.9875 136.087 89.8066 133.896 89.8066 131.195C89.8066 128.494 91.9875 124.583 94.6789 124.583C97.3702 124.583 100.642 128.494 100.642 131.195Z" fill="#006B3F" fill-opacity="0.44"/>
<path fill-rule="evenodd" clip-rule="evenodd" d="M123.076 131.195C123.076 133.896 119.782 136.087 117.09 136.087C114.399 136.087 112.218 133.896 112.218 131.195C112.218 128.494 114.399 124.583 117.09 124.583C119.782 124.583 123.076 128.494 123.076 131.195Z" fill="#006B3F" fill-opacity="0.44"/>
<path fill-rule="evenodd" clip-rule="evenodd" d="M145.489 131.195C145.489 133.896 142.195 136.087 139.527 136.087C136.835 136.087 134.654 133.896 134.654 131.195C134.654 128.494 136.835 124.583 139.527 124.583C142.195 124.583 145.489 128.494 145.489 131.195Z" fill="#006B3F" fill-opacity="0.44"/>
<path fill-rule="evenodd" clip-rule="evenodd" d="M167.901 131.195C167.901 133.896 164.629 136.087 161.938 136.087C159.247 136.087 157.066 133.896 157.066 131.195C157.066 128.494 159.247 124.583 161.938 124.583C164.629 124.583 167.901 128.494 167.901 131.195Z" fill="#006B3F" fill-opacity="0.44"/>
<path fill-rule="evenodd" clip-rule="evenodd" d="M190.336 131.195C190.336 133.896 187.042 136.087 184.35 136.087C181.682 136.087 179.501 133.896 179.501 131.195C179.501 128.494 181.682 124.583 184.35 124.583C187.042 124.583 190.336 128.494 190.336 131.195Z" fill="#006B3F" fill-opacity="0.44"/>
<path fill-rule="evenodd" clip-rule="evenodd" d="M212.748 131.195C212.748 133.896 209.477 136.087 206.786 136.087C204.094 136.087 201.914 133.896 201.914 131.195C201.914 128.494 204.094 124.583 206.786 124.583C209.477 124.583 212.748 128.494 212.748 131.195Z" fill="#006B3F" fill-opacity="0.44"/>
<path fill-rule="evenodd" clip-rule="evenodd" d="M33.3813 151.899C33.3813 154.6 30.0868 156.79 27.4186 156.79C24.7273 156.79 22.5464 154.6 22.5464 151.899C22.5464 149.198 24.7273 145.286 27.4186 145.286C30.0868 145.286 33.3813 149.198 33.3813 151.899Z" fill="#006B3F" fill-opacity="0.44"/>
<path fill-rule="evenodd" clip-rule="evenodd" d="M55.7934 151.899C55.7934 154.6 52.5221 156.79 49.8307 156.79C47.1394 156.79 44.9585 154.6 44.9585 151.899C44.9585 149.198 47.1394 145.286 49.8307 145.286C52.5221 145.286 55.7934 149.198 55.7934 151.899Z" fill="#006B3F" fill-opacity="0.44"/>
<path fill-rule="evenodd" clip-rule="evenodd" d="M78.229 151.899C78.229 154.6 74.9344 156.79 72.2431 156.79C69.5749 156.79 67.394 154.6 67.394 151.899C67.394 149.198 69.5749 145.286 72.2431 145.286C74.9344 145.286 78.229 149.198 78.229 151.899Z" fill="#006B3F" fill-opacity="0.44"/>
<path fill-rule="evenodd" clip-rule="evenodd" d="M100.642 151.899C100.642 154.6 97.3702 156.79 94.6789 156.79C91.9875 156.79 89.8066 154.6 89.8066 151.899C89.8066 149.198 91.9875 145.286 94.6789 145.286C97.3702 145.286 100.642 149.198 100.642 151.899Z" fill="#006B3F" fill-opacity="0.44"/>
<path fill-rule="evenodd" clip-rule="evenodd" d="M123.076 151.899C123.076 154.6 119.782 156.79 117.09 156.79C114.399 156.79 112.218 154.6 112.218 151.899C112.218 149.198 114.399 145.286 117.09 145.286C119.782 145.286 123.076 149.198 123.076 151.899Z" fill="#006B3F" fill-opacity="0.44"/>
<path fill-rule="evenodd" clip-rule="evenodd" d="M145.489 151.899C145.489 154.6 142.195 156.79 139.527 156.79C136.835 156.79 134.654 154.6 134.654 151.899C134.654 149.198 136.835 145.286 139.527 145.286C142.195 145.286 145.489 149.198 145.489 151.899Z" fill="#006B3F" fill-opacity="0.44"/>
<path fill-rule="evenodd" clip-rule="evenodd" d="M167.901 151.899C167.901 154.6 164.629 156.79 161.938 156.79C159.247 156.79 157.066 154.6 157.066 151.899C157.066 149.198 159.247 145.286 161.938 145.286C164.629 145.286 167.901 149.198 167.901 151.899Z" fill="#006B3F" fill-opacity="0.44"/>
<path fill-rule="evenodd" clip-rule="evenodd" d="M190.336 151.899C190.336 154.6 187.042 156.79 184.35 156.79C181.682 156.79 179.501 154.6 179.501 151.899C179.501 149.198 181.682 145.286 184.35 145.286C187.042 145.286 190.336 149.198 190.336 151.899Z" fill="#006B3F" fill-opacity="0.44"/>
<path fill-rule="evenodd" clip-rule="evenodd" d="M33.3813 172.601C33.3813 175.302 30.0868 177.492 27.4186 177.492C24.7273 177.492 22.5464 175.302 22.5464 172.601C22.5464 169.9 24.7273 165.988 27.4186 165.988C30.0868 165.988 33.3813 169.9 33.3813 172.601Z" fill="#006B3F" fill-opacity="0.44"/>
<path fill-rule="evenodd" clip-rule="evenodd" d="M55.7934 172.601C55.7934 175.302 52.5221 177.492 49.8307 177.492C47.1394 177.492 44.9585 175.302 44.9585 172.601C44.9585 169.9 47.1394 165.988 49.8307 165.988C52.5221 165.988 55.7934 169.9 55.7934 172.601Z" fill="#006B3F" fill-opacity="0.44"/>
<path fill-rule="evenodd" clip-rule="evenodd" d="M78.229 172.601C78.229 175.302 74.9344 177.492 72.2431 177.492C69.5749 177.492 67.394 175.302 67.394 172.601C67.394 169.9 69.5749 165.988 72.2431 165.988C74.9344 165.988 78.229 169.9 78.229 172.601Z" fill="#006B3F" fill-opacity="0.44"/>
<path fill-rule="evenodd" clip-rule="evenodd" d="M100.642 172.601C100.642 175.302 97.3702 177.492 94.6789 177.492C91.9875 177.492 89.8066 175.302 89.8066 172.601C89.8066 169.9 91.9875 165.988 94.6789 165.988C97.3702 165.988 100.642 169.9 100.642 172.601Z" fill="#006B3F" fill-opacity="0.44"/>
<path fill-rule="evenodd" clip-rule="evenodd" d="M123.076 172.601C123.076 175.302 119.782 177.492 117.09 177.492C114.399 177.492 112.218 175.302 112.218 172.601C112.218 169.9 114.399 165.988 117.09 165.988C119.782 165.988 123.076 169.9 123.076 172.601Z" fill="#006B3F" fill-opacity="0.44"/>
<path fill-rule="evenodd" clip-rule="evenodd" d="M145.489 172.601C145.489 175.302 142.195 177.492 139.527 177.492C136.835 177.492 134.654 175.302 134.654 172.601C134.654 169.9 136.835 165.988 139.527 165.988C142.195 165.988 145.489 169.9 145.489 172.601Z" fill="#006B3F" fill-opacity="0.44"/>
<path fill-rule="evenodd" clip-rule="evenodd" d="M167.901 172.601C167.901 175.302 164.629 177.492 161.938 177.492C159.247 177.492 157.066 175.302 157.066 172.601C157.066 169.9 159.247 165.988 161.938 165.988C164.629 165.988 167.901 169.9 167.901 172.601Z" fill="#006B3F" fill-opacity="0.44"/>
<path fill-rule="evenodd" clip-rule="evenodd" d="M10.9687 193.304C10.9687 196.005 7.67415 198.193 4.98282 198.193C2.29149 198.193 0.133789 196.005 0.133789 193.304C0.133789 190.603 2.29149 186.691 4.98282 186.691C7.67415 186.691 10.9687 190.603 10.9687 193.304Z" fill="#006B3F" fill-opacity="0.44"/>
<path fill-rule="evenodd" clip-rule="evenodd" d="M55.7934 193.304C55.7934 196.005 52.5221 198.193 49.8307 198.193C47.1394 198.193 44.9585 196.005 44.9585 193.304C44.9585 190.603 47.1394 186.691 49.8307 186.691C52.5221 186.691 55.7934 190.603 55.7934 193.304Z" fill="#006B3F" fill-opacity="0.44"/>
<path fill-rule="evenodd" clip-rule="evenodd" d="M78.229 193.304C78.229 196.005 74.9344 198.193 72.2431 198.193C69.5749 198.193 67.394 196.005 67.394 193.304C67.394 190.603 69.5749 186.691 72.2431 186.691C74.9344 186.691 78.229 190.603 78.229 193.304Z" fill="#006B3F" fill-opacity="0.44"/>
<path fill-rule="evenodd" clip-rule="evenodd" d="M100.642 193.304C100.642 196.005 97.3702 198.193 94.6789 198.193C91.9875 198.193 89.8066 196.005 89.8066 193.304C89.8066 190.603 91.9875 186.691 94.6789 186.691C97.3702 186.691 100.642 190.603 100.642 193.304Z" fill="#006B3F" fill-opacity="0.44"/>
<path fill-rule="evenodd" clip-rule="evenodd" d="M123.076 193.304C123.076 196.005 119.782 198.193 117.09 198.193C114.399 198.193 112.218 196.005 112.218 193.304C112.218 190.603 114.399 186.691 117.09 186.691C119.782 186.691 123.076 190.603 123.076 193.304Z" fill="#006B3F" fill-opacity="0.44"/>
<path fill-rule="evenodd" clip-rule="evenodd" d="M145.489 193.304C145.489 196.005 142.195 198.193 139.527 198.193C136.835 198.193 134.654 196.005 134.654 193.304C134.654 190.603 136.835 186.691 139.527 186.691C142.195 186.691 145.489 190.603 145.489 193.304Z" fill="#006B3F" fill-opacity="0.44"/>
<path fill-rule="evenodd" clip-rule="evenodd" d="M212.748 193.304C212.748 196.005 209.477 198.193 206.786 198.193C204.094 198.193 201.914 196.005 201.914 193.304C201.914 190.603 204.094 186.691 206.786 186.691C209.477 186.691 212.748 190.603 212.748 193.304Z" fill="#006B3F" fill-opacity="0.44"/>
<path fill-rule="evenodd" clip-rule="evenodd" d="M10.9687 214.008C10.9687 216.709 7.67415 218.897 4.98282 218.897C2.29149 218.897 0.133789 216.709 0.133789 214.008C0.133789 211.307 2.29149 207.396 4.98282 207.396C7.67415 207.396 10.9687 211.307 10.9687 214.008Z" fill="#006B3F" fill-opacity="0.44"/>
<path fill-rule="evenodd" clip-rule="evenodd" d="M33.3813 214.008C33.3813 216.709 30.0868 218.897 27.4186 218.897C24.7273 218.897 22.5464 216.709 22.5464 214.008C22.5464 211.307 24.7273 207.396 27.4186 207.396C30.0868 207.396 33.3813 211.307 33.3813 214.008Z" fill="#006B3F" fill-opacity="0.44"/>
<path fill-rule="evenodd" clip-rule="evenodd" d="M55.7934 214.008C55.7934 216.709 52.5221 218.897 49.8307 218.897C47.1394 218.897 44.9585 216.709 44.9585 214.008C44.9585 211.307 47.1394 207.396 49.8307 207.396C52.5221 207.396 55.7934 211.307 55.7934 214.008Z" fill="#006B3F" fill-opacity="0.44"/>
<path fill-rule="evenodd" clip-rule="evenodd" d="M145.489 214.008C145.489 216.709 142.195 218.897 139.527 218.897C136.835 218.897 134.654 216.709 134.654 214.008C134.654 211.307 136.835 207.396 139.527 207.396C142.195 207.396 145.489 211.307 145.489 214.008Z" fill="#006B3F" fill-opacity="0.44"/>
<path fill-rule="evenodd" clip-rule="evenodd" d="M190.336 214.008C190.336 216.709 187.042 218.897 184.35 218.897C181.682 218.897 179.501 216.709 179.501 214.008C179.501 211.307 181.682 207.396 184.35 207.396C187.042 207.396 190.336 211.307 190.336 214.008Z" fill="#006B3F" fill-opacity="0.44"/>
<path fill-rule="evenodd" clip-rule="evenodd" d="M212.748 214.008C212.748 216.709 209.477 218.897 206.786 218.897C204.094 218.897 201.914 216.709 201.914 214.008C201.914 211.307 204.094 207.396 206.786 207.396C209.477 207.396 212.748 211.307 212.748 214.008Z" fill="#006B3F" fill-opacity="0.44"/>
<path fill-rule="evenodd" clip-rule="evenodd" d="M212.748 171.101C212.748 173.802 209.477 175.992 206.786 175.992C204.094 175.992 201.914 173.802 201.914 171.101C201.914 168.4 204.094 164.49 206.786 164.49C209.477 164.49 212.748 168.4 212.748 171.101Z" fill="#006B3F" fill-opacity="0.44"/>
<path fill-rule="evenodd" clip-rule="evenodd" d="M190.336 191.802C190.336 194.503 187.042 196.694 184.35 196.694C181.682 196.694 179.501 194.503 179.501 191.802C179.501 189.101 181.682 185.192 184.35 185.192C187.042 185.192 190.336 189.101 190.336 191.802Z" fill="#006B3F" fill-opacity="0.44"/>
<path fill-rule="evenodd" clip-rule="evenodd" d="M167.901 212.506C167.901 215.207 164.629 217.398 161.938 217.398C159.247 217.398 157.066 215.207 157.066 212.506C157.066 209.805 159.247 205.896 161.938 205.896C164.629 205.896 167.901 209.805 167.901 212.506Z" fill="#006B3F" fill-opacity="0.44"/>
</g>
</svg>
