<svg width="525" height="563" viewBox="0 0 525 563" fill="none" xmlns="http://www.w3.org/2000/svg">
<path fill-rule="evenodd" clip-rule="evenodd" d="M-293.858 301.523C-277.497 174.765 -216.732 36.3816 -127.385 -37.2328C-22.2862 -123.827 91.5733 -196.747 217.143 -217.709C275.361 -227.429 339.134 -232.212 394.068 -200.426C435.875 -176.252 484.438 -140.116 507.445 -89.2974C563.736 35.0033 438.53 133.955 367.196 191.461C328.79 222.419 279.904 252.587 250.957 297.796C234.163 324.008 225.589 358.681 212.03 387.47C170.941 474.712 103.303 545.079 19.0493 557.663C-19.9067 563.476 -59.148 556.285 -97.8091 550.568C-137.385 544.719 -177.452 541.543 -216.781 533.381C-248.176 526.861 -285.176 515.822 -296.739 474.82C-311.32 423.151 -300.534 353.288 -293.858 301.523Z" stroke="#4E9578" stroke-opacity="0.5" stroke-width="5"/>
<path fill-rule="evenodd" clip-rule="evenodd" d="M-254.022 281.161C-230.161 161.987 -179.632 45.7399 -94.6895 -25.4045C-49.644 -63.1298 2.6466 -89.1718 52.8503 -114.902C109.758 -144.062 169.215 -166.698 229.941 -177.925C305.552 -191.912 428.01 -204.519 467.513 -99.3798C506.721 4.9797 407.643 97.3439 349.052 149.979C311.488 183.698 271.286 214.646 235.395 251.508C215.934 271.492 200.941 294.583 184.473 318.022C138.955 382.965 74.0638 434.377 7.92292 461.822C-56.1803 488.428 -135.482 500.208 -203.149 491.415C-232.346 487.636 -253.215 474.885 -262.045 438.635C-274.281 388.243 -263.886 330.389 -254.022 281.161Z" stroke="#4E9578" stroke-opacity="0.5" stroke-width="5"/>
<path fill-rule="evenodd" clip-rule="evenodd" d="M-214.439 249.063C-190.734 144.135 -139.605 48.2972 -65.0268 -14.6787C18.5721 -85.2758 126.219 -124.504 225.159 -144.453C277.751 -155.049 391.719 -183.777 418.525 -101.557C445.332 -19.3374 367.838 61.6879 323.236 106.292C269.104 160.345 210.74 212.534 152.446 261.032C101.798 303.199 47.7536 346.31 -7.10533 378.873C-38.0456 397.346 -70.2763 412.429 -103.415 423.943C-127.954 432.4 -159.158 445.014 -184.884 438.719C-249.775 422.82 -225.776 299.233 -214.439 249.063Z" stroke="#006B3F" stroke-opacity="0.5" stroke-width="5"/>
<path fill-rule="evenodd" clip-rule="evenodd" d="M-112.302 179.449C-67.0715 33.3196 64.4862 -50.4914 185.44 -78.1208C215.066 -84.8813 290.306 -105.93 312.744 -65.1512C333.509 -27.429 283.956 27.2304 265.416 48.9503C224.143 97.3166 175.23 137.16 126.908 175.458C82.2281 210.891 37.066 247.21 -9.94699 277.177C-34.7088 292.952 -81.1508 326.61 -109.29 302.253C-139.585 276.05 -122.345 211.897 -112.302 179.449Z" stroke="#006B3F" stroke-opacity="0.5" stroke-width="5"/>
<path fill-rule="evenodd" clip-rule="evenodd" d="M-53.5953 136.755C-19.1213 41.3267 73.2099 -20.6414 154.657 -41.2335C176.573 -46.7623 223.94 -61.106 242.428 -35.6208C259.448 -12.1504 232.017 22.2577 219.843 38.1485C165.886 108.584 86.8715 171.499 14.4761 210.141C-3.72619 219.855 -36.4469 238.924 -55.1712 219.316C-74.3782 199.179 -61.5144 158.667 -53.5953 136.755Z" stroke="#006B3F" stroke-opacity="0.5" stroke-width="5"/>
<path fill-rule="evenodd" clip-rule="evenodd" d="M8.68295 96.6695C28.1092 49.2834 78.8809 13.532 120.938 2.15159C150.536 -5.85102 186.114 1.06197 160.319 42.3099C134.694 83.243 87.1465 120.629 46.8466 137.203C16.1 149.843 -7.99804 137.373 8.68295 96.6695Z" stroke="#006B3F" stroke-opacity="0.5" stroke-width="5"/>
</svg>
